<svg id="Capa_1" data-name="Capa 1" xmlns="http://www.w3.org/2000/svg" viewBox="0 0 270 74"><defs><style>.cls-1{fill:#fff;}</style></defs><title>logoupscolor</title><polygon class="cls-1" points="219.45 69.1 222.43 69.1 222.43 67.9 219.45 67.9 219.45 66.53 222.58 66.53 222.58 65.33 217.82 65.33 217.82 71.87 222.64 71.87 222.64 70.67 219.45 70.67 219.45 69.1"/><path class="cls-1" d="M225.29,68.59a2.12,2.12,0,0,1,2.37-2,4.6,4.6,0,0,1,2.25.67V65.82a4.55,4.55,0,0,0-2.37-.58c-2.5,0-3.93,1.63-3.93,3.38S224.88,72,227.42,72A5.07,5.07,0,0,0,230,71.3V69.87a5.11,5.11,0,0,1-2.37.72A2.1,2.1,0,0,1,225.29,68.59Z"/><path class="cls-1" d="M236.14,69a1.51,1.51,0,0,1-1.66,1.62,1.47,1.47,0,0,1-1.62-1.5V65.33h-1.63v3.72c0,2,1.37,2.9,3.27,2.9s3.27-.74,3.27-2.91V65.33h-1.63Z"/><path class="cls-1" d="M240.68,65.33,238,71.87h1.73l.49-1.3h2.92l.54,1.3h1.75l-2.9-6.54Zm0,4.1,1-2.54,1,2.54Z"/><path class="cls-1" d="M249.11,65.33h-2.89v6.54h2.71c2.6,0,3.79-1.38,3.79-3.26S251.5,65.33,249.11,65.33Zm-.19,5.34h-1.07V66.53h1.05a2.07,2.07,0,1,1,0,4.14Z"/><path class="cls-1" d="M257.39,65.24a3.37,3.37,0,1,0,3.74,3.36A3.49,3.49,0,0,0,257.39,65.24Zm0,5.35a2,2,0,1,1,2.06-2A1.92,1.92,0,0,1,257.39,70.59Z"/><path class="cls-1" d="M266.25,68.81a1.69,1.69,0,0,0,1.12-1.6,2,2,0,0,0-2.13-1.88h-2.93v6.54h1.63V69.21h.47c.88,0,1.14,1.26,1.84,2.66h1.8C267.13,70,266.92,69.14,266.25,68.81Zm-1.44-.8h-.87V66.53h.83c.61,0,.93.25.93.73S265.26,68,264.81,68Z"/><path class="cls-1" d="M86.07,55.52c-2.42,0-4.36-1-7.52-3.74V58c2.19,1.49,4.1,2.8,7.94,2.8,4.9,0,8.45-3.23,8.45-8.79,0-10.12-11.19-8.89-11.19-13.26,0-1.45,1.25-2.38,3.22-2.38s3.78.72,7,2.59V33.34a14.43,14.43,0,0,0-7.45-2.26c-5.1,0-8.39,3.32-8.39,8.33,0,10.42,11.2,8.67,11.2,13.43C89.3,54.54,88.17,55.52,86.07,55.52Z"/><path class="cls-1" d="M96.3,60.45h5.81l1.64-5.74h9.84l1.81,5.74h5.91l-9.78-29h-6.36Zm12.13-22.06L112,49.66H105.2Z"/><polygon class="cls-1" points="123.86 31.46 123.86 60.45 140.64 60.45 140.64 55.14 129.34 55.14 129.34 31.46 123.86 31.46"/><polygon class="cls-1" points="159.77 36.78 159.77 31.46 143.77 31.46 143.77 60.45 160 60.45 160 55.14 149.25 55.14 149.25 48.17 159.29 48.17 159.29 42.85 149.25 42.85 149.25 36.78 159.77 36.78"/><path class="cls-1" d="M171.1,55.52c-2.42,0-4.36-1-7.52-3.74V58c2.19,1.49,4.1,2.8,7.94,2.8,4.9,0,8.45-3.23,8.45-8.79,0-10.12-11.19-8.89-11.19-13.26,0-1.45,1.25-2.38,3.22-2.38s3.78.72,7,2.59V33.34a14.43,14.43,0,0,0-7.45-2.26c-5.1,0-8.39,3.32-8.39,8.33,0,10.42,11.2,8.67,11.2,13.43C174.33,54.54,173.2,55.52,171.1,55.52Z"/><rect class="cls-1" x="183.88" y="31.47" width="5.49" height="28.98"/><path class="cls-1" d="M192.07,60.45h5.81l1.65-5.74h9.84l1.81,5.74h5.9l-9.78-29H201Zm12.14-22.06,3.55,11.27H201Z"/><polygon class="cls-1" points="225.15 41.88 237.31 60.45 241.93 60.45 241.93 31.46 236.44 31.46 236.44 49.19 224.7 31.46 219.66 31.46 219.66 60.45 225.15 60.45 225.15 41.88"/><path class="cls-1" d="M253.39,31.47l-8.88,29h5.81L252,54.71h9.84l1.8,5.74h5.91l-9.78-29Zm0,18.19,3.22-11.27,3.55,11.27Z"/><path class="cls-1" d="M78,13.69v5c0,2.75,1.78,3.94,4.25,3.94s4.25-1,4.25-4v-5H84.41v4.94a2,2,0,0,1-2.15,2.2,2,2,0,0,1-2.11-2V13.69Z"/><polygon class="cls-1" points="90.33 13.69 88.38 13.69 88.38 22.55 90.5 22.55 90.5 16.87 95.2 22.55 96.98 22.55 96.98 13.69 94.86 13.69 94.86 19.11 90.33 13.69"/><rect class="cls-1" x="98.97" y="13.69" width="2.12" height="8.87"/><polygon class="cls-1" points="104.4 13.69 102.1 13.69 106.21 22.67 107.14 22.67 111.06 13.69 108.78 13.69 106.65 18.75 104.4 13.69"/><polygon class="cls-1" points="118.22 15.31 118.22 13.69 112.04 13.69 112.04 22.55 118.31 22.55 118.31 20.93 114.16 20.93 114.16 18.8 118.03 18.8 118.03 17.17 114.16 17.17 114.16 15.31 118.22 15.31"/><path class="cls-1" d="M126.51,16.23a2.59,2.59,0,0,0-2.78-2.54h-3.8v8.86h2.12V19h.61c1.15,0,1.49,1.71,2.4,3.6h2.33c-1.2-2.6-1.46-3.69-2.33-4.14A2.3,2.3,0,0,0,126.51,16.23Zm-3.34,1.1h-1.12v-2h1.07c.8,0,1.21.34,1.21,1S123.76,17.33,123.17,17.33Z"/><path class="cls-1" d="M131,21.05a4.79,4.79,0,0,1-2.9-1.15v1.91a5.51,5.51,0,0,0,3.06.86c1.9,0,3.27-1,3.27-2.69,0-3.09-4.33-2.72-4.33-4.06,0-.44.49-.73,1.25-.73a6.43,6.43,0,0,1,2.69.8V14.26a6.72,6.72,0,0,0-2.88-.69c-2,0-3.24,1-3.24,2.55,0,3.18,4.33,2.65,4.33,4.11C132.29,20.75,131.85,21.05,131,21.05Z"/><rect class="cls-1" x="135.98" y="13.69" width="2.12" height="8.87"/><path class="cls-1" d="M143.8,13.69H140v8.86h3.52c3.39,0,4.94-1.87,4.94-4.42S146.9,13.69,143.8,13.69Zm-.25,7.24h-1.38V15.31h1.35a2.56,2.56,0,0,1,2.8,2.81A2.58,2.58,0,0,1,143.55,20.93Z"/><path class="cls-1" d="M151.34,20.8h3.81l.7,1.75h2.28l-3.78-8.86h-2.46l-3.43,8.86h2.25Zm1.81-5,1.37,3.44H151.9Z"/><path class="cls-1" d="M159.1,13.69v8.86h3.52c3.39,0,4.94-1.87,4.94-4.42s-1.6-4.44-4.71-4.44Zm6.27,4.43a2.57,2.57,0,0,1-2.77,2.81h-1.38V15.31h1.36A2.56,2.56,0,0,1,165.37,18.12Z"/><path class="cls-1" d="M172.67,13.69v8.86h2.12V19h1.68a2.65,2.65,0,1,0,0-5.3Zm4.43,2.65c0,.66-.35,1-1.33,1h-1V15.31h.75C176.68,15.31,177.1,15.58,177.1,16.34Z"/><path class="cls-1" d="M180.4,18.12a4.88,4.88,0,1,0,4.88-4.55A4.62,4.62,0,0,0,180.4,18.12Zm7.56,0a2.69,2.69,0,1,1-5.38,0,2.69,2.69,0,1,1,5.38,0Z"/><polygon class="cls-1" points="191.67 13.69 191.67 22.55 198.16 22.55 198.16 20.93 193.79 20.93 193.79 13.69 191.67 13.69"/><rect class="cls-1" x="199.42" y="13.69" width="2.12" height="8.87"/><polygon class="cls-1" points="208.1 22.55 208.1 15.31 211.18 15.31 211.18 13.69 202.9 13.69 202.9 15.31 205.98 15.31 205.98 22.55 208.1 22.55"/><polygon class="cls-1" points="212.49 22.55 218.76 22.55 218.76 20.93 214.61 20.93 214.61 18.8 218.49 18.8 218.49 17.17 214.61 17.17 214.61 15.31 218.67 15.31 218.67 13.69 212.49 13.69 212.49 22.55"/><polygon class="cls-1" points="215.41 10.93 214.48 12.83 215.41 12.83 217.46 10.93 215.41 10.93"/><path class="cls-1" d="M225.28,15.42a5.7,5.7,0,0,1,2.93.91v-2a5.78,5.78,0,0,0-3.08-.78c-3.25,0-5.11,2.21-5.11,4.58s1.65,4.52,4.95,4.52a6.43,6.43,0,0,0,3.34-.88V19.85a6.43,6.43,0,0,1-3.08,1,2.73,2.73,0,1,1,.05-5.41Z"/><polygon class="cls-1" points="231.95 13.69 230.01 13.69 230.01 22.55 232.13 22.55 232.13 16.87 236.83 22.55 238.61 22.55 238.61 13.69 236.49 13.69 236.49 19.11 231.95 13.69"/><rect class="cls-1" x="240.6" y="13.69" width="2.12" height="8.87"/><path class="cls-1" d="M249.57,15.42a5.76,5.76,0,0,1,2.94.91v-2a5.82,5.82,0,0,0-3.08-.78c-3.26,0-5.12,2.21-5.12,4.58s1.65,4.52,4.95,4.52a6.49,6.49,0,0,0,3.35-.88V19.85a6.5,6.5,0,0,1-3.09,1,2.73,2.73,0,1,1,0-5.41Z"/><path class="cls-1" d="M253.38,22.55h2.24l.64-1.75h3.8l.7,1.75H263l-3.78-8.86h-2.45Zm4.69-6.74,1.37,3.44h-2.62Z"/><path class="cls-1" d="M61.67,21.62a1.34,1.34,0,0,0-.26-.87c-.67-.87-1.48-.93-2.15-.07a2.13,2.13,0,0,1-1.86.88.66.66,0,0,0-.67.48,2.09,2.09,0,0,1-3,1.33,8.27,8.27,0,0,1-2.93-1.86.8.8,0,0,0-1.09-.15,21.15,21.15,0,0,1-2.61,1.3,7.78,7.78,0,0,1-2.17.5c-.93.08-1.3-.44-.92-1.29s-.28-1.39-.5-2.17a8.26,8.26,0,0,0-.62.66c-.65.92-1.28,1.86-1.93,2.79a3.5,3.5,0,0,0-.58,2c0,.51-.06,1-.12,1.53a56.67,56.67,0,0,0-.55,7.92,17.77,17.77,0,0,1,0,2.73A6.73,6.73,0,0,0,40,40c.26.89.79,1.73.54,2.72,0,0,0,.09,0,.14.11.53.42.73.93.56a2.23,2.23,0,0,0,.58-.33c.68-.48,1.35-1,2-1.47a.53.53,0,0,1,.77,0,.89.89,0,0,1,.2.71,3.92,3.92,0,0,1-.54.89,12.36,12.36,0,0,0-.72,1.06,1.16,1.16,0,0,0,0,1.36,1.62,1.62,0,0,0,1.39.62.75.75,0,0,0,.78-.65c.06-.36.06-.73.09-1.1,1.43,1.5,3.15,1.11,4.71.76-.37.59-.83,1.22-1.18,1.91s-.25.91.53,1c1.27.1,2.55.07,3.82.08a.36.36,0,0,0,.25-.11,2.52,2.52,0,0,1,1.79-.9c.34-.06.56-.25.54-.57a1.9,1.9,0,0,0-.22-1,6.42,6.42,0,0,0-1.26-1.29,3.78,3.78,0,0,1-1.47-2.12,7.74,7.74,0,0,0,3,2.33,1.74,1.74,0,0,1,1.21,2.15c0,.26,0,.53-.11.79a3.59,3.59,0,0,0-.27.8,27.52,27.52,0,0,0,.16,3.14c.19,1.46.81,1.87,2.32,1.65-.79.72-1.49,1.45-2.28,2.05a1.81,1.81,0,0,0-.7,1.75c0,.29.12.38.41.38a9.14,9.14,0,0,0,4-.79,4,4,0,0,0,2.52-3.89c0-1,0-2,0-3.07a.65.65,0,0,1,.31-.63,1.77,1.77,0,0,0,.61-.77,10.54,10.54,0,0,0,.35-1.76,11.66,11.66,0,0,0,0-1.33c.2.17.32.28.45.37a3.4,3.4,0,0,0,.45.28c.54.26.88.09,1.14-.45s.7-1.31,1.06-2a17.07,17.07,0,0,0,.88-1.63,9.66,9.66,0,0,0,.78-3.87c0-1.13-.41-1.68-1.31-1.9-.62-.15-1,.1-1,.75a8.62,8.62,0,0,0,.2,1.22,4.14,4.14,0,0,1-.85,3.19c-.41-.3-.48-.55-.16-1a1.7,1.7,0,0,0-.09-2.53c-.19-.2-.23-.36-.08-.58.51-.72,1-1.47,1.52-2.15a1.44,1.44,0,0,1,2.16-.21,9.24,9.24,0,0,1,.85.83c.06-.54.12-1,.16-1.48a.38.38,0,0,0-.13-.24,3.12,3.12,0,0,0-2.87-.66,3.47,3.47,0,0,0-2,1.8c-.36.65-.61,1.37-1,2a3.59,3.59,0,0,1-.52.66l-.16-.07a9.85,9.85,0,0,1-.1-1.08,3.12,3.12,0,0,0-.95-2.58c-.18-.16-.3-.38-.46-.55a2.86,2.86,0,0,1-1-2.44c0-.05,0-.09,0-.14a2.57,2.57,0,0,1,.39-1.89,6.94,6.94,0,0,0,1-4.95c-.1-.77-.27-1.38-1.22-1.41C61.87,22.46,61.65,22.15,61.67,21.62ZM47.51,36.33a5.72,5.72,0,0,0-.46,1.6c-.12.44-.31.51-.58.13a8.48,8.48,0,0,1-.86-1.53c-.14-.3-.27-.45-.62-.44a13.1,13.1,0,0,0-3.42.26.74.74,0,0,1-.38-.05L41,36.22h0s0-.09,0-.14a1.59,1.59,0,0,1,.16-.41,5,5,0,0,1,.37-.43.54.54,0,0,0-.37-.93c-.9-.11-.7-.15-.76-.88a21.29,21.29,0,0,1,.44-4.51c.08-.6.13-1.19.2-1.79l.09,0,.11.26c.33.61.63,1.24,1,1.84.25.41.22.66-.23.73s-.49.32-.4.67.14.62.23.93a1.54,1.54,0,0,0,1.54,1.25c1.08.08,2.15.23,3.22.4a1.17,1.17,0,0,1,.66.4A2.2,2.2,0,0,1,47.51,36.33ZM58.75,37.4A.7.7,0,0,1,58,37a1,1,0,0,0-1.57-.4,2.66,2.66,0,0,1-1.86.21A6.85,6.85,0,0,0,53,36.63a2.52,2.52,0,0,1-2.16-.93c-.47-.55-.89-1.15-1.34-1.73l.1-.09a15.82,15.82,0,0,0,5.18.28c.76,0,1.52-.14,2.28-.2a.51.51,0,0,1,.3.09c.77.75,1.53,1.52,2.32,2.3C59.15,36.49,58.42,36.5,58.75,37.4Z"/><path class="cls-1" d="M57,52.31a5.66,5.66,0,0,0-.34-1.53c-.4-1-.93-1.86-2.11-2-1.44-.16-2.88-.32-4.33-.4a14.23,14.23,0,0,0-2.52.16.53.53,0,0,0-.18,1,1.88,1.88,0,0,0,.69.31c.45.09.91.14,1.29.19-.19.34-.36.68-.56,1a.55.55,0,0,1-.29.2,4.31,4.31,0,0,1-.61.1,1.33,1.33,0,0,1-1.6-1,6.29,6.29,0,0,0-.8-1.49.77.77,0,0,0-.75-.14,3.53,3.53,0,0,0-1,1.14c-.09.19.18.59.33.88a2.19,2.19,0,0,0,.5.7,1.67,1.67,0,0,1,.57,1.4,1.38,1.38,0,0,0,.55,1.07,7.9,7.9,0,0,0,.78.55,11.87,11.87,0,0,0,5.94,1.42,4.6,4.6,0,0,0,4.24-2.73A1.56,1.56,0,0,0,57,52.31Z"/><path class="cls-1" d="M269.26,25.59H73.41a5.42,5.42,0,0,0-.57,0,.46.46,0,0,1-.46-.14.73.73,0,0,1-.16-.29c-.57-1.44-1.1-2.9-1.76-4.29A35.76,35.76,0,0,0,62.84,10.4a5.76,5.76,0,0,1-.42-.47l-.1-.11H269.9V8.71H61.69a1.83,1.83,0,0,1-.85-.18,1.61,1.61,0,0,1-.4-.26A36.44,36.44,0,0,0,50,2.35,37,37,0,0,0,38.58.11c-.68,0-1.37,0-2,0L34.85.18a31,31,0,0,0-6.78,1A37.19,37.19,0,0,0,3.21,22,36.4,36.4,0,0,0,0,36.77c0,1.46.13,2.93.26,4.39a31.77,31.77,0,0,0,1.65,7.53,36.53,36.53,0,0,0,9.52,14.93,37.15,37.15,0,0,0,23.34,10.2c.58,0,1.17.05,1.76.06v0a36.42,36.42,0,0,0,15.27-3,3.56,3.56,0,0,1,1.47-.31H213.74l.66,0V69.48H55.09l0-.11A36.83,36.83,0,0,0,70,54c.48-.93.93-1.89,1.34-2.87A37,37,0,0,0,72.74,26.7H269.07a4.26,4.26,0,0,0,.62,0,.38.38,0,0,0,.25-.21C270.11,25.78,270,25.59,269.26,25.59ZM12.73,53.85s0-.06,0-.09a3.74,3.74,0,0,1,0-.42C12.91,53.66,12.91,53.76,12.73,53.85ZM24.21,25.62c-.06.42-.11.84-.16,1.26a1,1,0,0,1-.89-.19,1.69,1.69,0,0,0-1.32-.32,1,1,0,0,1-1.24-1.23c0-.29-.07-.44-.39-.47a.75.75,0,0,1-.76-.58c-.05-.38-.22-.37-.47-.29s-.6.16-.78,0a7.25,7.25,0,0,0-1.85-1c-.63-.32-1.05-.91-1.74-1.13a2.31,2.31,0,0,1-.66-.34c.08-.24.16-.48.23-.72s.26-.46.68-.39c2.74.47,5.49.91,8.23,1.35a9.36,9.36,0,0,0,1.29.11c.37,0,.5.14.43.53C24.59,23.36,24.36,24.48,24.21,25.62ZM14.15,52.13A2.55,2.55,0,0,1,14.59,50a.66.66,0,0,0,.06-.4,1.49,1.49,0,0,1,.6-1.22.91.91,0,0,0,.34-.66c.05-.4.12-.8.19-1.2,0-.14.11-.27.27-.24s.2.16.16.31a2.59,2.59,0,0,0,0,.28c.37-.11.63-.26.38-.64s-.06-.36.1-.51l1.57-1.53a.59.59,0,0,1,.29-.19,45.76,45.76,0,0,0,5-1.78c.13,1.74.33,3.47.55,5.2.17,1.35.44,2.7.69,4,.06.34,0,.43-.34.46a88.49,88.49,0,0,0-9.7,1.52c-.16,0-.34,0-.52.06-.12-.34-.24-.68-.35-1C14,52.45,14.19,52.33,14.15,52.13ZM24.74,20.6c-1.76-.24-3.53-.45-5.29-.71-1.35-.2-2.69-.48-4-.72-.17,0-.33-.09-.57-.15A32.58,32.58,0,0,1,25.48,5.14c.7.58,1.33,1.17,2,1.66s1.44.85,2.13,1.25c-.75,1.68-1.59,3.32-2.2,5-.83,2.35-1.5,4.76-2.21,7.15C25.14,20.54,25,20.64,24.74,20.6ZM8.93,14.83a34.64,34.64,0,0,1,9.92-8.6c1.62-.92,3.35-1.64,5-2.47.33-.16.55-.15.71,0a1,1,0,0,1,.19.39C19.61,7.94,16.14,13,13.6,18.86L7.65,17.08,7.32,17C7.93,16.16,8.41,15.48,8.93,14.83ZM4.47,22.08c.61-1.31,1.37-2.56,2.05-3.84A.38.38,0,0,1,7,18h0c1.87.61,3.76,1.18,5.65,1.76l.42.13c-.23.69-.44,1.35-.67,2a.94.94,0,0,1-.34.08,1,1,0,0,0-.68.26.82.82,0,0,1-.64.22,1.46,1.46,0,0,0-1.23.33A.72.72,0,0,1,9,23a.89.89,0,0,0-.55.16c-.49.24-.83.79-1.45.74a.53.53,0,0,0-.6.35.51.51,0,0,0,.29.67c.2.08.3.33.2.46-.24.3-.14.52,0,.77,0,.07.09.16,0,.21s-.16.36-.14.54a2.06,2.06,0,0,1-1.11,2A4.85,4.85,0,0,0,4.5,30a.56.56,0,0,0-.08.74.89.89,0,0,1-.06,1.11,1.58,1.58,0,0,0-.24.44c-.29.82-.29.82-1.18.79a.72.72,0,0,0-.73,1,2,2,0,0,0,.38.65A.79.79,0,0,1,2.67,36a1,1,0,0,0-.22.93H1.52c-.26,0-.35-.16-.35-.5A34.74,34.74,0,0,1,4.47,22.08ZM6.88,55.61a.49.49,0,0,1-.62-.29A35.26,35.26,0,0,1,1.69,43c-.23-1.31-.31-2.65-.42-4-.05-.66-.05-.88.27-1a4.19,4.19,0,0,1,.7,0H3A1.38,1.38,0,0,1,1.9,39.86c-.33.11-.15.29,0,.41A2.09,2.09,0,0,0,3,40.9a1.13,1.13,0,0,1,.77.5,3,3,0,0,0,1.48,1.18c.17.06.31.1.39-.07.25-.52.78-.85.91-1.43a.56.56,0,0,1,.33-.43.37.37,0,0,0,.07.14c.08.13.16.15.24.24s.08.4.12.4.09-.34.1-.4a5.27,5.27,0,0,0,.13-1.13c0-.26-.08-.39,0-.53a.53.53,0,0,1,.33-.21c0,.8-.28,1.63.35,2.36a.54.54,0,0,1,0,.65,7.86,7.86,0,0,0-.62,1.7,2.62,2.62,0,0,1-1,1.83A2,2,0,0,1,5.48,46c-.1,0-.22,0-.26.09s.07.14.13.2a1.49,1.49,0,0,1,.5,1.27A2.58,2.58,0,0,0,6,48.65a.3.3,0,0,1-.2.44c-.23.1-.33.52-.7.25a.48.48,0,0,0-.61,0,.72.72,0,0,0-.14.84c.06.19.07.4.38.35s.3.1.16.3l-.26.37c-.1.17-.3.34-.09.53a.54.54,0,0,0,.66.08,2.09,2.09,0,0,0,.63-.59c.27-.35.55-.31.86-.05s.38.28.57.42a1.23,1.23,0,0,0,1.27.22c.42-.18.67,0,.84.41a5,5,0,0,1,.39,1.25A1,1,0,0,0,10,54a2,2,0,0,0,.53.49L6.94,55.59Zm18.44,15a2.93,2.93,0,0,1-.53-.09,35.6,35.6,0,0,1-7-3.43,32.54,32.54,0,0,1-6.64-5.45c-1.33-1.43-2.5-3-3.74-4.54a3.09,3.09,0,0,1-.22-.4l.33-.11c.45-.16.88-.32,1.32-.45,1.36-.38,2.73-.71,4.09-1.11.42-.12.55,0,.7.37a37,37,0,0,0,5.5,9.31,28.68,28.68,0,0,0,5.7,5.36l.22.16.3.23Zm.46-1.34a27.85,27.85,0,0,1-5.93-5.59,35.73,35.73,0,0,1-5-8.51c-.06-.14-.11-.29-.2-.51A98.46,98.46,0,0,1,25,53.06c.75,2.39,1.44,4.75,2.23,7.08a36.18,36.18,0,0,0,3.11,6.69,11,11,0,0,0-1.14.56c-.9.6-1.79,1.21-2.64,1.87A.5.5,0,0,1,25.78,69.3Zm10,3.37a34.83,34.83,0,0,1-9.34-1.58l.26-.3c2.48-2.79,5.64-3.63,9.08-3.9Zm0-7c-.69.07-1.38.14-2.06.24a14.65,14.65,0,0,0-1.86.4.43.43,0,0,1-.58-.23,37.48,37.48,0,0,1-3.12-6.82c-.65-2-1.18-4-1.77-6,0-.12,0-.24-.06-.47l9.45-.51Zm0-14.52c-1.1,0-2.19,0-3.28.1-2,.13-4,.29-6,.45-.33,0-.51,0-.56-.39-.36-2.52-.77-5-1.05-7.55-.08-.67-.12-1.35-.15-2a6.66,6.66,0,0,0,2.12-1.41L28.25,39c.31-.31.61-.62.9-.94q3.3,0,6.6,0Zm0-14.29-5.64,0a6.15,6.15,0,0,0,1.17-3c0-.34.15-.56.57-.48s.5,0,.38-.46a1.81,1.81,0,0,1-.06-1.46.52.52,0,0,0-.26-.7,1.21,1.21,0,0,1-.76-1,1.12,1.12,0,0,0-.64-.69c-.08-.05-.25,0-.21-.22a.32.32,0,0,1,.42,0c.3.21.62.08.93.09.09,0,.23,0,.25-.11s-.1-.23-.22-.23a1.83,1.83,0,0,1-1-.48.67.67,0,0,0-.34-.1,1.93,1.93,0,0,1-1.61-.81c-.13-.15-.28-.29-.41-.44a2.19,2.19,0,0,0-2-.67c-.14,0-.19.07-.24.2-.18.46-.48.68-.86.62.19-1.52.44-3,.74-4.55.09-.42.26-.51.69-.46,1,.13,2,.19,3,.24,2,.11,4.08.19,6.12.27Zm0-15.63c-3.12,0-6.23-.26-9.44-.52.19-.77.37-1.47.56-2.18a47,47,0,0,1,3.75-9.69c.18-.34.35-.41.7-.3a17,17,0,0,0,4.43.74Zm0-13.15a37.65,37.65,0,0,1-3.83-.59A10.58,10.58,0,0,1,27.08,5c-.48-.45-.9-1-1.4-1.54l-.2-.22a35.07,35.07,0,0,1,10.27-1.9Zm1.53-6.59A35.44,35.44,0,0,1,48,3.26,12.25,12.25,0,0,1,43.52,7a13.54,13.54,0,0,1-3.59,1,13.78,13.78,0,0,1-2.65.17Zm0,70.79V66.92a14.64,14.64,0,0,1,2.65.18,12.77,12.77,0,0,1,3.59,1.05,12.29,12.29,0,0,1,3.7,2.72A35.09,35.09,0,0,1,37.28,72.33Zm11.24-1.87A13.23,13.23,0,0,0,44.05,67a14.1,14.1,0,0,0-3.93-1.15,15.83,15.83,0,0,0-2.84-.19V9.43h.38a15.6,15.6,0,0,0,2.46-.2A14.56,14.56,0,0,0,44,8.09a13.52,13.52,0,0,0,5.24-4.41,35.34,35.34,0,0,1-.76,66.78Z"/></svg>