<?xml version="1.0" encoding="utf-8"?>
<!-- Generator: Adobe Illustrator 25.2.1, SVG Export Plug-In . SVG Version: 6.00 Build 0)  -->
<svg version="1.1" id="Capa_1" xmlns="http://www.w3.org/2000/svg" xmlns:xlink="http://www.w3.org/1999/xlink" x="0px" y="0px"
	 viewBox="0 0 270 74" style="enable-background:new 0 0 270 74;" xml:space="preserve">
<style type="text/css">
	.st0{fill:#003976;}
	.st1{fill:#CCD7E4;}
	.st2{fill:#FEECB2;}
	.st3{fill:#6688AD;}
	.st4{fill:#FCC000;}
	.st5{fill:#FCCD33;}
</style>
<g>
	<rect x="56.2" y="25.6" class="st0" width="213.8" height="1.2"/>
	<rect x="56.2" y="8.9" class="st0" width="213.8" height="1.2"/>
	<rect x="34.9" y="69.2" class="st0" width="179.6" height="1.2"/>
	<g>
		<path class="st0" d="M85.7,14v5.1c0,3-1.7,4-3.9,4c-2.2,0-3.8-1.2-3.8-4V14h1.9v5.2c0,1.3,0.8,2.1,1.9,2.1c1,0,2-0.6,2-2.2v-5
			H85.7z"/>
	</g>
	<polygon class="st0" points="95.9,22.9 94.3,22.9 90,17.2 90,22.9 88.1,22.9 88.1,14 89.9,14 94,19.5 94,14 95.9,14 	"/>
	<rect x="98.5" y="14" class="st0" width="1.9" height="9"/>
	<polygon class="st0" points="106.7,23.1 105.9,23.1 102.1,14 104.2,14 106.3,19.1 108.2,14 110.2,14 	"/>
	<polygon class="st0" points="117.6,22.9 111.9,22.9 111.9,14 117.5,14 117.5,15.6 113.8,15.6 113.8,17.5 117.3,17.5 117.3,19.1 
		113.8,19.1 113.8,21.3 117.6,21.3 	"/>
	<g>
		<path class="st0" d="M119.9,14v9h1.9v-3.7h0.6c1,0,1.3,1.7,2.2,3.7h2.1c-1.1-2.6-1.3-3.7-2.1-4.2c0.9-0.5,1.3-1.2,1.3-2.2
			c0-1.3-0.9-2.6-2.5-2.6H119.9z M121.8,15.6h1c0.7,0,1.1,0.3,1.1,1c0,0.8-0.5,1-1.1,1h-1V15.6z"/>
		<path class="st0" d="M133.5,16.3c-1.1-0.6-1.8-0.8-2.4-0.8c-0.7,0-1.1,0.3-1.1,0.7c0,1.4,3.9,1,3.9,4.1c0,1.7-1.2,2.7-3,2.7
			c-1.3,0-2-0.4-2.8-0.9v-1.9c1.1,0.9,1.8,1.2,2.6,1.2c0.7,0,1.1-0.3,1.1-0.8c0-1.5-3.9-0.9-3.9-4.2c0-1.6,1.2-2.6,2.9-2.6
			c0.9,0,1.6,0.2,2.6,0.7V16.3z"/>
	</g>
	<rect x="136" y="14" class="st0" width="1.9" height="9"/>
	<g>
		<path class="st0" d="M140.4,14v9h3.2c3.1,0,4.5-1.9,4.5-4.5c0-2.5-1.4-4.5-4.3-4.5H140.4z M142.4,15.6h1.2c1.8,0,2.5,1.3,2.5,2.8
			c0,1.3-0.6,2.9-2.5,2.9h-1.3V15.6z"/>
	</g>
	<path class="st0" d="M153.1,16.1l-1.1,3.5h2.4L153.1,16.1z M157.6,22.9h-2.1l-0.6-1.8h-3.4l-0.6,1.8h-2l3.1-9h2.2L157.6,22.9z"/>
	<g>
		<path class="st0" d="M159.3,14v9h3.2c3.1,0,4.5-1.9,4.5-4.5c0-2.5-1.4-4.5-4.3-4.5H159.3z M161.2,15.6h1.2c1.8,0,2.5,1.3,2.5,2.8
			c0,1.3-0.6,2.9-2.5,2.9h-1.3V15.6z"/>
		<path class="st0" d="M175.1,17.7h0.9c0.9,0,1.2-0.4,1.2-1c0-0.8-0.4-1-1.4-1h-0.7V17.7z M176.6,14c1.8,0,2.6,1.4,2.6,2.7
			c0,1.3-0.8,2.7-2.5,2.7h-1.5v3.6h-1.9v-9H176.6z"/>
		<path class="st0" d="M189.8,18.4c0-2.2-1.5-4.6-4.4-4.6c-2.9,0-4.4,2.4-4.4,4.6c0,2.3,1.6,4.6,4.4,4.6
			C188.1,23.1,189.8,20.8,189.8,18.4 M187.8,18.4c0,1.6-1,2.7-2.4,2.7c-1.5,0-2.4-1.1-2.4-2.7c0-1.6,1-2.7,2.4-2.7
			C186.8,15.7,187.8,16.8,187.8,18.4"/>
	</g>
	<polygon class="st0" points="197.8,22.9 191.9,22.9 191.9,14 193.9,14 193.9,21.3 197.8,21.3 	"/>
	<rect x="199.7" y="14" class="st0" width="1.9" height="9"/>
	<polygon class="st0" points="211.2,15.6 208.4,15.6 208.4,22.9 206.5,22.9 206.5,15.6 203.7,15.6 203.7,14 211.2,14 	"/>
	<polygon class="st0" points="218.8,22.9 213.2,22.9 213.2,14 218.8,14 218.8,15.6 215.1,15.6 215.1,17.5 218.6,17.5 218.6,19.1 
		215.1,19.1 215.1,21.3 218.8,21.3 	"/>
	<g>
		<path class="st0" d="M228.3,22.2c-1.1,0.6-1.9,0.9-3,0.9c-3,0-4.5-2.3-4.5-4.6c0-2.4,1.7-4.6,4.6-4.6c1.1,0,2,0.3,2.8,0.8v2
			c-0.9-0.6-1.7-0.9-2.7-0.9c-1.6,0-2.8,1.1-2.8,2.7c0,1.6,1.1,2.8,2.7,2.8c1,0,1.7-0.4,2.8-1V22.2z"/>
	</g>
	<polygon class="st0" points="238.4,22.9 236.8,22.9 232.5,17.2 232.5,22.9 230.6,22.9 230.6,14 232.4,14 236.5,19.5 236.5,14 
		238.4,14 	"/>
	<rect x="241" y="14" class="st0" width="1.9" height="9"/>
	<g>
		<path class="st0" d="M252.6,22.2c-1.1,0.6-1.9,0.9-3,0.9c-3,0-4.5-2.3-4.5-4.6c0-2.4,1.7-4.6,4.6-4.6c1.1,0,2,0.3,2.8,0.8v2
			c-0.8-0.6-1.7-0.9-2.7-0.9c-1.6,0-2.8,1.1-2.8,2.7c0,1.6,1.1,2.8,2.7,2.8c1,0,1.7-0.4,2.8-1V22.2z"/>
	</g>
	<path class="st0" d="M258.4,16.1l-1.1,3.5h2.4L258.4,16.1z M262.9,22.9h-2.1l-0.6-1.8h-3.4l-0.6,1.8h-2l3.1-9h2.2L262.9,22.9z"/>
	<g>
		<path class="st0" d="M94,39c-3.2-1.9-5.1-2.6-7-2.6c-2,0-3.2,0.9-3.2,2.4C83.8,43.2,95,42,95,52.1c0,5.6-3.6,8.8-8.5,8.8
			c-3.8,0-5.7-1.3-7.9-2.8v-6.3c3.2,2.8,5.1,3.8,7.5,3.8c2.1,0,3.2-1,3.2-2.7c0-4.8-11.2-3-11.2-13.5c0-5,3.3-8.4,8.4-8.4
			c2.5,0,4.7,0.7,7.5,2.3V39z"/>
	</g>
	<path class="st0" d="M111.5,31.5h-6.4l-8.9,29.1h5.8l1.7-5.8h9.8l1.8,5.8h5.9L111.5,31.5z M112,49.7h-6.8l3.2-11.3L112,49.7z"/>
	<polygon class="st0" points="140.7,60.6 123.9,60.6 123.9,31.5 129.4,31.5 129.4,55.3 140.7,55.3 	"/>
	<polygon class="st0" points="160,60.6 143.8,60.6 143.8,31.5 159.8,31.5 159.8,36.8 149.3,36.8 149.3,42.9 159.3,42.9 159.3,48.2 
		149.3,48.2 149.3,55.3 160,55.3 	"/>
	<g>
		<path class="st0" d="M179,39c-3.2-1.9-5.1-2.6-7-2.6c-2,0-3.2,0.9-3.2,2.4c0,4.4,11.2,3.2,11.2,13.3c0,5.6-3.5,8.8-8.5,8.8
			c-3.8,0-5.7-1.3-7.9-2.8v-6.3c3.2,2.8,5.1,3.8,7.5,3.8c2.1,0,3.2-1,3.2-2.7c0-4.8-11.2-3-11.2-13.5c0-5,3.3-8.4,8.4-8.4
			c2.5,0,4.7,0.7,7.5,2.3V39z"/>
	</g>
	<rect x="183.9" y="31.5" class="st0" width="5.5" height="29.1"/>
	<path class="st0" d="M207.4,31.5H201l-8.9,29.1h5.8l1.6-5.8h9.8l1.8,5.8h5.9L207.4,31.5z M207.8,49.7H201l3.2-11.3L207.8,49.7z"/>
	<polygon class="st0" points="242,60.6 237.4,60.6 225.2,41.9 225.2,60.6 219.7,60.6 219.7,31.5 224.8,31.5 236.5,49.3 236.5,31.5 
		242,31.5 	"/>
	<path class="st0" d="M259.8,31.5h-6.4l-8.9,29.1h5.8l1.6-5.8h9.8l1.8,5.8h5.9L259.8,31.5z M260.3,49.7h-6.8l3.2-11.3L260.3,49.7z"
		/>
	<g>
		<path class="st1" d="M73.4,36.9c0,20-16.3,36.2-36.5,36.2c-20.2,0-36.5-16.2-36.5-36.2c0-20,16.3-36.2,36.5-36.2
			C57,0.7,73.4,16.9,73.4,36.9"/>
		<path class="st2" d="M50.8,3.4C39.5-1,30.6,1.3,30.6,1.3s-0.5,1.4-0.1,2.5c0.4,1.2-1.2,0.8-0.4,2c0.8,1.2-1.6,1.6-3.6,4.3
			c-2,2.8,0,0-1.2,2c-1.2,2-0.4,1.6-2.4,3.2c-2,1.6-2.4,1.6-4.3,2.4c-2,0.8-3.9,2.7-3.9,2.7L6.2,50.6l-1.7,3.2
			c0,0,9.3,19.4,32.4,19.3c0,0,7,0.4,15.4-3.4L50.9,8.4L50.8,3.4z"/>
		<path class="st3" d="M4.5,33c0,0-0.6-1.3,0.9-0.7c0,0,0.7-0.3,0.1-0.7c0,0-1.7-0.9-0.2-1.9c0,0,1-0.5,1.3-0.8l0.2-1.4l0.3-0.1
			l0.1-1.8c0,0-1.3-0.7,0.2-1.2c0,0,0.7-1.1,4.1-1.3c0,0,0.8-0.9,1.4-0.7c0,0,0.6-0.9,1-0.9c0,0,0.6,0.3,1,1c0,0,1.1,0.3,1.2,0.9
			c0,0,1.4,0.2,2.1,1.4c0,0,0.9,0.2,0.9-0.1c0,0,0.1-0.7,1.6,1l0.3,1.1l1.9,0.2l0.2,0.5l3.6,0.1l0.5-0.9c0,0,0.1-0.8,2.8,1.8l1,0.1
			l0.2,0.7l1.5,0.2c0,0,0.5,0.4-1.7,0.3l0.1,0.9c0,0,1.1,0.5,1.7,1.2l0.1,2.3c0,0-0.8-0.2-1.3,1.1l-0.1,1.2c0,0-3.4,5.5-8.7,6.6
			c0,0-2.2,0.7-4.6,2.1c0,0-1.9,1.4-2,1.7l-0.2,1.8c0,0-0.4,1.1-1,1.2c0,0,0.2,1.6-0.3,1.6c0,0,1.1,1.7-0.9,1.8c0,0-0.6,0.3-0.9,1.2
			c0,0-1.1,1.5-2.7-0.7c0,0,0-1.5-1.3-1.4c0,0-1,0.3-2-1c0,0-1-0.5-1.2,1c0,0-1.4,0.5-0.3-1.1c0,0-0.2-0.8-0.6-1c0,0-0.5-1,0.8-0.3
			l0.7-0.2l0.2-1.3c0,0-0.9-1.3,0-1.4c0,0,0.6-0.1,0.6-1.3l0.7-0.1l0.1-1.2l0.3-0.3l-0.1-1.2l0.6-0.1l0.1-1l-0.3-0.2l-0.2-0.6
			L8.3,40l0.2-0.4v-0.4l-0.4,0.1l-0.4,2.4l-0.5-1.5L7,41v0.3l-0.2,0.2l-0.1,0.5l-0.6,0.3v0.4H4.9c0,0-1.3-0.8-1.5-1.4
			c0,0-1.5,0.1-0.7-1.4l0.7-0.2c0,0,0.4-1.4-0.5-1.7c0,0-0.5-1.2,0.1-1l0.2-1.3l-0.5-0.5l-0.1-1.5C2.7,33.7,4.3,33.6,4.5,33"/>
		<path class="st0" d="M37.2,0.8C57.3,0.8,73.7,17,73.7,37c0,20-16.3,36.2-36.5,36.2"/>
		<path class="st0" d="M37.2,1.4c4.8,0,9.5,0.9,14,2.8c4.3,1.8,8.1,4.4,11.4,7.6c3.3,3.3,5.9,7.1,7.7,11.3c1.9,4.4,2.8,9.1,2.8,13.9
			c0,4.8-0.9,9.5-2.8,13.9c-1.8,4.2-4.4,8.1-7.7,11.3c-3.3,3.3-7.1,5.8-11.4,7.6c-4.4,1.9-9.1,2.8-14,2.8v1.2c5,0,9.9-1,14.4-2.9
			C56,69.1,60,66.4,63.4,63c3.4-3.4,6.1-7.3,8-11.7c1.9-4.5,2.9-9.4,2.9-14.3c0-5-1-9.8-2.9-14.3c-1.9-4.4-4.5-8.3-8-11.7
			C60,7.6,56,4.9,51.6,3.1c-4.6-1.9-9.4-2.9-14.4-2.9V1.4z"/>
		<path class="st4" d="M40.2,28.4l0.2-1.8l0.2-2.4c0,0,1.3-2.6,3-4.2l0.7,1.5c0,0-1.7,2.9,2.6,1.6l3.5-1.7c0,0,5.2,5.2,6.6,0.5
			l1.8-0.2c0,0,1.4-2.8,3-0.3v1c0,0,0.2,0.3,1.6,0.5c0,0,1.4,3.5-1.2,6.8l0.2,2.6l2.3,2.8l0.2,2.6c0,0,0.3,0.5,1-1
			c0,0,1.6-5.5,5.6-2.6l-0.2,1.6c0,0-1.2-2.1-2.8-0.9c0,0-1.2,1.2-1.9,2.8c0,0,1.9,1.2,0,3.1l0.5,0.7c0,0,1.4-1.6,0.9-3.6
			c0,0-0.9-2.6,1.6-1.2c0,0,1.4,1.4-0.7,6.2c0,0-1.2,1.6-1.4,2.1c-0.2,0.5-0.3,2.1-2.3,0.2c0,0,0.5,3.6-1.2,4.2v4
			c0,0,0.2,4.2-6.8,4.2v-1.4l4-3.6c0,0-2.4,2.4-3.3-0.3c0,0-0.7-4,0.2-4.3v-2.2c0,0-3.5-1.6-4.4-3.3c0,0,0.2,1.7,1.7,2.6
			c0,0,2.1,1.6,1,2.6c0,0-1.7,0.2-2.1,1c0,0-4.2,0.3-4.7-0.3c0,0,0.5-2.4,2.8-3.1c0,0-5.1,2.4-6.5-0.9c0,0,0.9,2.4-0.7,2.4
			c0,0-2.8-0.3-0.5-2.9c0,0,1.6-1.6-0.2-1.9l-2.6,1.9c0,0-1.6,0.9-1-1.6c0,0-1.4-2.9-0.9-4.3C39.8,37.4,39.6,31,40.2,28.4"/>
		<path class="st5" d="M46.5,50.6c0,0-0.9-4-2.6-0.7c0,0,0.7,1.4,1.4,1.9l0.2,1.4c0,0,0.7,1.7,5.6,2.4c0,0,4.2,1,5.9-2.9
			c0,0,0.2-2.6-1.9-3.8c0,0-8.4-1.2-7.7,0.2c0,0-0.3,0.9,2.6,0.9c0,0-1.4,0.7-0.9,1.2C49.1,51.1,46.8,51.8,46.5,50.6"/>
		<path class="st0" d="M41.1,26.6c0,0,0.5,2.1,1.2,2.6c0,0,0.7,0.9-0.7,0.9c0,0,0.2,2.6,1.4,2.6l4,0.5c0,0,1.7,1.7,0.5,3.1L47,38.4
			c0,0-0.9,0-1.6-2.3h-2.8c0,0-3.1,1-1-1v-0.7l-1.2-0.2v-2.9l0.4-1.4L41.1,26.6z"/>
		<path class="st0" d="M49.3,33.6c0,0,1.4,2.9,3.1,3.1h1.4c0,0,1.9,0.7,2.8-0.2c0,0,1-0.3,1.4,0.7c0,0,1.2,1,0.7-0.5l1.2-0.3
			c0,0-1.6-1-2.6-2.4C57.3,33.9,50.1,34.8,49.3,33.6"/>
		<path class="st0" d="M12.9,53.7c-5.3,1.2-7.1,2.1-7.2,2.2L6.3,57c0,0,1.8-0.9,7-2.1c4.8-1.1,12.8-2.5,24.1-2.6l0-1.2
			C25.9,51.2,17.8,52.6,12.9,53.7"/>
		<path class="st0" d="M6,17.7c0.1,0,1.8,1.1,7,2.3c4.8,1.1,12.9,2.5,24.3,2.6l0-1.2c-11.2-0.2-19.2-1.5-23.9-2.6
			c-5.1-1.2-6.8-2.2-6.9-2.3L6,17.7z"/>
		<path class="st0" d="M24.7,71.4l1.1,0.6c2.1-4,6.8-5.3,11.2-5.3c2.6,0,5,0.6,7.2,1.7c2.1,1.1,2.7,1.4,3.8,3.2l1-0.6
			c-1.2-2-2-2.4-4.2-3.6c-2.3-1.2-5-1.8-7.7-1.8C32.2,65.5,27,67,24.7,71.4"/>
		<path class="st0" d="M44.5,6.5c-2.2,1.2-4.8,1.9-7.5,1.9c-5.3,0-9.8-1.8-11.9-5.8L24,3.2c2.3,4.3,7.2,6.4,13,6.4
			c5.9,0,10.2-2,12.4-6.4l-1.1-0.5C47.4,4.6,46.7,5.3,44.5,6.5"/>
		<path class="st0" d="M14.4,17.2c-2.8,5.9-4.3,12.8-4.3,19.9c0,7.2,1.6,14.3,4.5,20.3c2.9,5.9,6.9,10.5,11.7,13.4l0.6-1
			c-9.5-5.7-15.6-18.5-15.6-32.7c0-6.9,1.5-13.6,4.2-19.4c2.7-5.6,6.4-10.1,10.9-12.9l-0.7-1C21.1,6.8,17.2,11.4,14.4,17.2"/>
		<path class="st0" d="M23.4,37c0,12,2.7,23.1,7.5,30.5l1-0.6c-2.2-3.4-4-7.9-5.3-12.9c-1.3-5.3-2-11-2-16.9
			c0-11.1,2.4-21.7,6.7-28.9l-1-0.6C25.8,14.9,23.4,25.6,23.4,37"/>
	</g>
	<rect x="0.5" y="36.9" class="st0" width="38" height="1.2"/>
	<g>
		<path class="st0" d="M23.1,69.6c-4.3-1.8-8.1-4.3-11.4-7.6C8.4,58.8,5.8,55,4,50.8c-1.9-4.4-2.8-9-2.8-13.8
			c0-4.8,0.9-9.4,2.8-13.8c1.8-4.2,4.4-8,7.7-11.3c3.3-3.3,7.1-5.8,11.4-7.6c4.2-1.8,8.7-2.7,13.4-2.8v70.9
			C31.9,72.3,27.4,71.4,23.1,69.6 M37.1,0.3c-5,0-9.9,1-14.4,2.9c-4.4,1.8-8.4,4.5-11.8,7.9c-3.4,3.4-6.1,7.3-8,11.6
			C1,27.2,0,32,0,37s1,9.7,2.9,14.3c1.9,4.4,4.5,8.3,8,11.6c3.4,3.4,7.4,6,11.8,7.9c4.6,1.9,9.4,2.9,14.4,2.9h0.6V0.3H37.1z"/>
	</g>
	<polygon class="st0" points="222.6,71.6 217.8,71.6 217.8,65.1 222.6,65.1 222.6,66.3 219.4,66.3 219.4,67.6 222.4,67.6 
		222.4,68.8 219.4,68.8 219.4,70.4 222.6,70.4 	"/>
	<g>
		<path class="st0" d="M230,71c-0.9,0.5-1.6,0.7-2.6,0.7c-2.6,0-3.8-1.6-3.8-3.3c0-1.7,1.4-3.4,4-3.4c0.9,0,1.7,0.2,2.4,0.6V67
			c-0.7-0.4-1.5-0.7-2.3-0.7c-1.4,0-2.4,0.8-2.4,2c0,1.2,1,2,2.3,2c0.9,0,1.4-0.3,2.4-0.7V71z"/>
		<path class="st0" d="M237.8,65.1v3.7c0,2.2-1.5,2.9-3.3,2.9c-1.9,0-3.3-0.9-3.3-2.9v-3.7h1.6v3.8c0,0.9,0.7,1.5,1.6,1.5
			c0.9,0,1.7-0.4,1.7-1.6v-3.6H237.8z"/>
	</g>
	<path class="st0" d="M242.7,65.1h-1.9l-2.7,6.5h1.7l0.5-1.3h2.9l0.5,1.3h1.8L242.7,65.1z M242.8,69.2h-2l1-2.5L242.8,69.2z"/>
	<g>
		<path class="st0" d="M246.3,65.1v6.5h2.7c2.6,0,3.8-1.4,3.8-3.3c0-1.8-1.2-3.3-3.6-3.3H246.3z M248,66.3h1c1.6,0,2.2,0.9,2.2,2.1
			c0,1-0.5,2.1-2.1,2.1H248V66.3z"/>
		<path class="st0" d="M261.3,68.3c0-1.6-1.3-3.3-3.8-3.3c-2.5,0-3.8,1.8-3.8,3.3c0,1.7,1.4,3.3,3.8,3.3
			C259.9,71.7,261.3,70,261.3,68.3 M259.6,68.3c0,1.2-0.8,2-2.1,2c-1.3,0-2.1-0.8-2.1-2c0-1.2,0.8-2,2.1-2
			C258.8,66.3,259.6,67.1,259.6,68.3"/>
		<path class="st0" d="M264.2,67.8h0.9c0.5,0,0.9-0.2,0.9-0.7c0-0.5-0.3-0.7-0.9-0.7h-0.8V67.8z M265.5,65.1c1.4,0,2.2,0.9,2.2,1.9
			c0,0.7-0.4,1.3-1.1,1.6c0.7,0.3,0.9,1.1,1.8,3.1h-1.8c-0.7-1.4-1-2.7-1.8-2.7h-0.5v2.7h-1.6v-6.5H265.5z"/>
	</g>
	<polygon class="st0" points="217.1,11.1 215.6,13 218.5,12.1 	"/>
</g>
</svg>
